<?xml version="1.0" encoding="UTF-8" standalone="no"?>
<!-- Created with Inkscape (http://www.inkscape.org/) -->

<svg
   width="256"
   height="256"
   viewBox="0 0 67.733332 67.733332"
   version="1.1"
   id="svg5"
   inkscape:version="1.2.2 (732a01da63, 2022-12-09)"
   sodipodi:docname="target.svg"
   xmlns:inkscape="http://www.inkscape.org/namespaces/inkscape"
   xmlns:sodipodi="http://sodipodi.sourceforge.net/DTD/sodipodi-0.dtd"
   xmlns="http://www.w3.org/2000/svg"
   xmlns:svg="http://www.w3.org/2000/svg">
  <sodipodi:namedview
     id="namedview7"
     pagecolor="#ffffff"
     bordercolor="#000000"
     borderopacity="0.25"
     inkscape:showpageshadow="2"
     inkscape:pageopacity="0.0"
     inkscape:pagecheckerboard="0"
     inkscape:deskcolor="#d1d1d1"
     inkscape:document-units="px"
     showgrid="false"
     inkscape:zoom="2.9825758"
     inkscape:cx="181.88976"
     inkscape:cy="111.98374"
     inkscape:window-width="1920"
     inkscape:window-height="1017"
     inkscape:window-x="-8"
     inkscape:window-y="-8"
     inkscape:window-maximized="1"
     inkscape:current-layer="layer1" />
  <defs
     id="defs2" />
  <g
     inkscape:label="Layer 1"
     inkscape:groupmode="layer"
     id="layer1">
    <path
       id="path263"
       style="color:#000000;fill:#f00000;-inkscape-stroke:none"
       d="M 33.867183 7.1447834 C 27.447438 7.1447834 21.551966 9.4166515 16.941084 13.198677 L 18.810738 15.068331 C 22.932203 11.764752 28.165518 9.7890664 33.867183 9.7890664 C 39.568789 9.7890664 44.801558 11.764814 48.922594 15.068331 L 50.792764 13.198677 C 46.181928 9.4168044 40.286784 7.1447834 33.867183 7.1447834 z M 54.534655 16.940051 L 52.664485 18.810221 C 55.967877 22.931758 57.943232 28.165304 57.943232 33.867183 C 57.943232 39.569002 55.967815 44.802004 52.664485 48.923111 L 54.534655 50.793798 C 58.31708 46.182796 60.590099 40.287305 60.590099 33.867183 C 60.590099 27.446917 58.317233 21.551099 54.534655 16.940051 z M 13.198677 16.941084 C 9.4166515 21.551966 7.1447834 27.447438 7.1447834 33.867183 C 7.1447834 40.286784 9.4168044 46.181928 13.198677 50.792764 L 15.068331 48.922594 C 11.764814 44.801558 9.7890664 39.568789 9.7890664 33.867183 C 9.7890664 28.165518 11.764752 22.932203 15.068331 18.810738 L 13.198677 16.941084 z M 18.810221 52.664485 L 16.940051 54.534655 C 21.551098 58.317233 27.446917 60.590099 33.867183 60.590099 C 40.287305 60.590099 46.182796 58.31708 50.793798 54.534655 L 48.923111 52.664485 C 44.802004 55.967815 39.569002 57.943232 33.867183 57.943232 C 28.165304 57.943232 22.931758 55.967877 18.810221 52.664485 z " />
    <path
       id="path263-4"
       style="color:#000000;fill:#f00000;-inkscape-stroke:none"
       d="M 33.867183 15.61145 C 29.786213 15.61145 26.013976 16.957259 22.97069 19.228283 L 24.856363 21.113956 C 27.400593 19.315209 30.506659 18.255733 33.867183 18.255733 C 37.227516 18.255733 40.333181 19.314879 42.876969 21.11344 L 44.762642 19.227767 C 41.719514 16.957154 37.947745 15.61145 33.867183 15.61145 z M 48.505049 22.969657 L 46.618859 24.855847 C 48.417451 27.400165 49.476566 30.506448 49.476566 33.867183 C 49.476566 37.227835 48.41737 40.333564 46.618859 42.877485 L 48.505565 44.764192 C 50.776851 41.720806 52.122916 37.948411 52.122916 33.867183 C 52.122916 29.785696 50.776595 26.013143 48.505049 22.969657 z M 19.228283 22.97069 C 16.957259 26.013976 15.61145 29.786213 15.61145 33.867183 C 15.61145 37.947745 16.957154 41.719514 19.227767 44.762642 L 21.11344 42.876969 C 19.314879 40.333181 18.255733 37.227516 18.255733 33.867183 C 18.255733 30.506659 19.315209 27.400593 21.113956 24.856363 L 19.228283 22.97069 z M 24.855847 46.618859 L 22.969657 48.505049 C 26.013143 50.776595 29.785696 52.122916 33.867183 52.122916 C 37.948411 52.122916 41.720806 50.776851 44.764192 48.505565 L 42.877485 46.618859 C 40.333564 48.41737 37.227835 49.476566 33.867183 49.476566 C 30.506448 49.476566 27.400165 48.417451 24.855847 46.618859 z " />
    <path
       style="fill:none;stroke:#f00000;stroke-width:2.64583;stroke-dasharray:none;stroke-opacity:1"
       d="M 8.4666665,8.4666665 29.633333,29.633333"
       id="path1055"
       sodipodi:nodetypes="cc" />
    <path
       style="fill:none;stroke:#f00000;stroke-width:2.64583;stroke-dasharray:none;stroke-opacity:1"
       d="M 59.266665,8.4666666 38.099999,29.633333"
       id="path1055-8"
       sodipodi:nodetypes="cc" />
    <path
       style="fill:none;stroke:#f00000;stroke-width:2.64583;stroke-dasharray:none;stroke-opacity:1"
       d="M 8.466666,59.266665 29.633333,38.099999"
       id="path1055-0"
       sodipodi:nodetypes="cc" />
    <path
       style="fill:none;stroke:#f00000;stroke-width:2.64583;stroke-dasharray:none;stroke-opacity:1"
       d="M 59.266665,59.266665 38.099999,38.099999"
       id="path1055-8-6"
       sodipodi:nodetypes="cc" />
  </g>
</svg>
